<svg width="559" height="559" viewBox="0 0 559 559" fill="none" xmlns="http://www.w3.org/2000/svg">
<g clip-path="url(#clip0_14_31)">
<path d="M226 30.888C259.106 11.7743 299.894 11.7743 333 30.888L468.054 108.862C501.16 127.975 521.554 163.299 521.554 201.526V357.474C521.554 395.701 501.16 431.025 468.054 450.138L333 528.112C299.894 547.225 259.106 547.225 226 528.112L90.9463 450.138C57.8404 431.025 37.4463 395.701 37.4463 357.474V201.526C37.4463 163.299 57.8404 127.975 90.9463 108.862L226 30.888Z" fill="url(#paint0_linear_14_31)"/>
<path fill-rule="evenodd" clip-rule="evenodd" d="M269.32 57.8165C258.202 61.8354 236.791 72.2457 189.175 96.7829C144.436 119.84 135.764 124.294 121.65 131.473C113.667 135.535 102.912 141.009 97.7494 143.638C86.1627 149.541 80.7721 161.531 80.3509 174.528L80 185.357C80 195.361 80.4428 202.368 80.9668 207.157C81.6396 213.306 85.0151 218.544 89.9623 222.257C96.8335 227.415 108.772 235.629 126.699 245.531C140.235 253.009 155.854 261.645 161.408 264.725C166.961 267.806 176.333 272.913 182.233 276.076C207.197 289.459 215.585 294.062 237.13 306.214C249.621 313.258 263.113 319.781 267.11 320.708C277.327 323.077 287.958 319.567 308.671 306.983C317.919 301.366 327.189 295.804 329.272 294.626C331.354 293.446 335.614 290.989 338.738 289.166C341.862 287.344 356.629 278.947 371.553 270.505C414.781 246.058 440.261 229.551 454.207 219.853C463.671 213.272 468.754 202.432 468.77 190.905L468.806 166.372C468.823 154.51 463.708 143.475 453.497 137.438C448.204 134.309 441.233 130.447 432.136 125.818C419.294 119.283 401.119 109.981 391.748 105.15C382.376 100.317 368.745 93.3505 361.456 89.6688C354.167 85.9855 338.549 78.0124 326.748 71.9483C291.752 53.9654 284.744 52.2408 269.32 57.8165ZM270.652 90.3948L282.334 96.3327L294.264 91.1259C300.825 88.2633 306.423 86.2231 306.705 86.5936C306.986 86.9641 305.784 91.5329 304.033 96.7464L300.847 106.225L306.225 109.214C309.182 110.857 314.433 113.749 317.894 115.643C324.952 119.506 324.524 119.883 310.971 121.774C292.282 124.379 293.606 123.521 289.378 135.743C285.096 148.118 285.955 148.449 277.942 131.342L273.311 121.456L261.534 120.34C245.467 118.82 238.642 117.487 239.881 116.115C240.772 115.128 253.878 108.448 260.801 105.452C263.767 104.17 263.568 101.593 259.839 93.0082C258.113 89.0308 256.699 85.4804 256.699 85.1166C256.699 83.6612 259.468 84.7095 270.652 90.3948ZM393.881 140.606C407.202 147.645 417.71 153.908 417.23 154.525C416.752 155.143 403.927 162.099 388.734 169.987L361.107 184.327L336.043 171.356C322.258 164.224 311.154 157.691 311.367 156.841C311.943 154.541 365.56 126.264 367.767 127.095C368.808 127.487 380.56 133.566 393.881 140.606ZM226.723 139.047C237.43 143.686 246.059 153.525 244.677 159.517C240.56 177.361 206.331 187.48 175.842 179.866C154.173 174.457 144.075 162.534 151.422 151.041C155.557 144.571 160.296 141.254 170.874 137.424C183.156 132.978 214.838 133.899 226.723 139.047ZM308.929 186.216C308.418 187.359 304.884 194.274 301.074 201.584C297.264 208.894 292.411 218.239 290.288 222.351C283.045 236.382 283.768 235.85 277.098 232.022C268.905 227.322 235.743 209.278 229.248 205.988C222.818 202.732 222.489 201.187 227.985 200.072C237.656 198.108 258.792 193.898 278.155 190.075C289.609 187.814 300.401 185.656 302.136 185.279C308.502 183.893 309.883 184.084 308.929 186.216Z" fill="white"/>
<path d="M97.8884 258.074L266.888 353.249C270.664 355.375 273 359.372 273 363.705V391.47C273 400.651 263.111 406.431 255.112 401.926L86.1116 306.751C82.336 304.625 80 300.628 80 296.295V268.53C80 259.349 89.8891 253.569 97.8884 258.074Z" fill="white"/>
<path d="M97.8884 345.074L266.888 440.249C270.664 442.375 273 446.372 273 450.705V478.47C273 487.651 263.111 493.431 255.112 488.926L86.1116 393.751C82.336 391.625 80 387.628 80 383.295V355.53C80 346.349 89.8891 340.569 97.8884 345.074Z" fill="white"/>
<path d="M413.654 281.311C420.123 277.585 428.21 282.243 428.21 289.696V319.189C428.21 322.2 431.412 324.131 434.076 322.727L459.761 309.184C466.224 305.776 474 310.45 474 317.743V350.701C474 354.289 472.01 357.583 468.831 359.26L435.147 377.02C430.88 379.27 428.21 383.696 428.21 388.52V425.769C428.21 429.228 426.36 432.424 423.358 434.154L394.65 450.689C388.181 454.415 380.094 449.757 380.094 442.305V412.679C380.094 409.667 376.892 407.736 374.228 409.14L348.239 422.844C341.776 426.252 334 421.577 334 414.285V381.327C334 377.738 335.99 374.444 339.169 372.768L373.158 354.846C377.424 352.597 380.094 348.17 380.094 343.347V306.231C380.094 302.772 381.944 299.576 384.946 297.846L413.654 281.311Z" fill="white"/>
</g>
<defs>
<linearGradient id="paint0_linear_14_31" x1="279.5" y1="-0.000190919" x2="32.5004" y2="487" gradientUnits="userSpaceOnUse">
<stop stop-color="#FB3535"/>
<stop offset="1" stop-color="#6F0404"/>
</linearGradient>
<clipPath id="clip0_14_31">
<rect width="559" height="559" fill="white"/>
</clipPath>
</defs>
</svg>
